
<svg width="48" height="48" viewBox="0 0 48 48" version="1.1" xmlns="http://www.w3.org/2000/svg" xmlns:xlink="http://www.w3.org/1999/xlink" xml:space="preserve" xmlns:serif="http://www.serif.com/" style="fill-rule:evenodd;clip-rule:evenodd;stroke-linecap:round;stroke-linejoin:round;stroke-miterlimit:1.5;">
    <g transform="matrix(1.2,0,0,1.2,-2,-4.4)">
        <circle cx="15" cy="17" r="10" style="fill-opacity:0;stroke:white;stroke-width:4.17px;"/>
    </g>
    <path d="M16,16L18.652,16L25.652,23L23,25.652L16,18.652L16,16" style="fill:rgb(255,0,7);stroke:white;stroke-width:1.25px;stroke-miterlimit:1;"/>
    <g>
        <g>
            <g transform="matrix(1.2,0,0,1.2,-2,-4.4)">
                <circle cx="15" cy="17" r="10" style="fill-opacity:0;stroke:black;stroke-width:3.13px;"/>
            </g>
            <g transform="matrix(0.328125,-0.109375,-0.109375,0.328125,16,16)">
                <path d="M0,0L32,32" style="fill:none;"/>
            </g>
            <g transform="matrix(0.328125,-0.109375,-0.109375,0.328125,16,16)">
                <path d="M9.091,3.03L41.091,35.03L35.03,41.091L3.03,9.091L-0,0L9.091,3.03Z"/>
            </g>
        </g>
    </g>
</svg>
